<?xml version="1.0" encoding="UTF-8" standalone="no"?>
<svg
   height="16px"
   viewBox="0 0 16 16"
   width="16px"
   version="1.1"
   id="svg4"
   sodipodi:docname="color.svg"
   inkscape:version="1.2 (dc2aedaf03, 2022-05-15)"
   xmlns:inkscape="http://www.inkscape.org/namespaces/inkscape"
   xmlns:sodipodi="http://sodipodi.sourceforge.net/DTD/sodipodi-0.dtd"
   xmlns="http://www.w3.org/2000/svg"
   xmlns:svg="http://www.w3.org/2000/svg">
  <defs
     id="defs8" />
  <sodipodi:namedview
     id="namedview6"
     pagecolor="#ffffff"
     bordercolor="#666666"
     borderopacity="1.0"
     inkscape:showpageshadow="2"
     inkscape:pageopacity="0.0"
     inkscape:pagecheckerboard="0"
     inkscape:deskcolor="#d1d1d1"
     showgrid="false"
     inkscape:zoom="64.1875"
     inkscape:cx="7.9922103"
     inkscape:cy="7.9922103"
     inkscape:window-width="3440"
     inkscape:window-height="1371"
     inkscape:window-x="0"
     inkscape:window-y="0"
     inkscape:window-maximized="1"
     inkscape:current-layer="svg4" />
  <path
     d="m 9.5145953,2.0698636 c -0.4375799,0 -0.7944717,0.3537878 -0.7944717,0.7944717 v 4.7668301 c 0,0.4406839 0.3568918,0.7944717 0.7944717,0.7944717 0.4406839,0 0.7944717,-0.3537878 0.7944717,-0.7944717 V 2.8643353 c 0,-0.4406839 -0.3537878,-0.7944717 -0.7944717,-0.7944717 z M 7.9256519,4.5774149 5.9643,6.0173948 C 5.9705,6.0080848 5.939473,6.0018788 5.7408548,6.0422218 2.562968,6.6597999 2.3643501,7.3580658 2.3643501,8.4256371 v 3.9723589 c 0,0.440684 0.3537878,0.794472 0.7944717,0.794472 0.4406839,0 0.7944716,-0.353788 0.7944716,-0.794472 V 7.482202 l 1.0179169,1.4896343 0.8441262,1.2413617 2.2096244,3.302024 c 0.3041332,0.449994 0.8534365,0.611371 1.2165347,0.347581 L 13.189027,11.00767 c 0.363098,-0.263789 0.403442,-0.841023 0.09931,-1.2910164 L 11.103538,6.4891124 v 1.142053 c 0,0.8782638 -0.710679,1.5889434 -1.5889427,1.5889434 -0.8782638,0 -1.5889434,-0.7106796 -1.5889434,-1.5889434 z m 0,0"
     fill="#222222"
     id="path2"
     style="fill:#f2f2f2;stroke-width:0.794472" />
</svg>
