<?xml version="1.0" standalone="no"?>
<!DOCTYPE svg PUBLIC "-//W3C//DTD SVG 1.1//EN" 
  "http://www.w3.org/Graphics/SVG/1.1/DTD/svg11.dtd">
<svg width="828" height="1025" viewBox="0 0 828 1025"
     xmlns="http://www.w3.org/2000/svg" version="1.1">
<desc>Position.blend, (Blender 3.1.2)</desc>
<polygon stroke="black" stroke-width="1" fill="rgb(204, 204, 204)" fill-opacity="0.25" points="534.483,709.557 533.152,709.557 533.152,710.091 534.483,710.091 " />
<polygon stroke="black" stroke-width="1" fill="rgb(204, 204, 204)" fill-opacity="0.25" points="538.570,975.920 539.901,975.920 539.901,975.387 538.570,975.387 " />
<polygon stroke="black" stroke-width="1" fill="rgb(204, 204, 204)" fill-opacity="0.25" points="538.570,996.814 539.901,996.814 539.901,996.280 538.570,996.280 " />
<polygon stroke="black" stroke-width="1" fill="rgb(204, 204, 204)" fill-opacity="0.25" points="516.142,1011.270 516.142,999.831 514.811,999.830 514.811,1011.270 " />
<polygon stroke="black" stroke-width="1" fill="rgb(204, 204, 204)" fill-opacity="0.25" points="520.229,841.605 520.229,856.287 521.560,856.287 521.560,841.605 " />
<polygon stroke="black" stroke-width="1" fill="rgb(204, 204, 204)" fill-opacity="0.25" points="538.570,632.066 538.570,646.747 539.901,646.747 539.901,632.066 " />
<polygon stroke="black" stroke-width="1" fill="rgb(204, 204, 204)" fill-opacity="0.25" points="534.483,674.208 533.152,674.208 533.152,688.890 534.483,688.890 " />
<polygon stroke="black" stroke-width="1" fill="rgb(204, 204, 204)" fill-opacity="0.25" points="12.899,402.141 16.959,403.516 17.193,413.616 12.582,414.869 " />
<polygon stroke="black" stroke-width="1" fill="rgb(204, 204, 204)" fill-opacity="0.25" points="205.035,851.717 209.270,850.243 209.308,812.435 204.622,810.970 " />
<polygon stroke="black" stroke-width="1" fill="rgb(204, 204, 204)" fill-opacity="0.25" points="205.035,448.295 209.270,446.821 209.308,409.013 204.621,407.548 " />
<polygon stroke="black" stroke-width="1" fill="rgb(204, 204, 204)" fill-opacity="0.25" points="374.706,851.717 378.941,850.243 378.980,812.435 374.293,810.970 " />
<polygon stroke="black" stroke-width="1" fill="rgb(204, 204, 204)" fill-opacity="0.25" points="35.363,851.717 39.598,850.243 39.636,812.435 34.950,810.970 " />
<polygon stroke="black" stroke-width="1" fill="rgb(204, 204, 204)" fill-opacity="0.25" points="508.342,402.141 512.402,403.516 512.636,413.615 508.025,414.869 " />
<polygon stroke="black" stroke-width="1" fill="rgb(204, 204, 204)" fill-opacity="0.25" points="345.457,402.141 349.516,403.516 349.750,413.615 345.139,414.869 " />
<polygon stroke="black" stroke-width="1" fill="rgb(204, 204, 204)" fill-opacity="0.25" points="671.228,432.354 675.288,430.979 675.521,420.879 670.910,419.625 " />
<polygon stroke="black" stroke-width="1" fill="rgb(204, 204, 204)" fill-opacity="0.25" points="371.864,397.519 371.771,420.336 375.901,427.258 376.147,390.798 " />
<polygon stroke="black" stroke-width="1" fill="rgb(204, 204, 204)" fill-opacity="0.25" points="353.348,411.365 353.297,405.910 349.516,403.516 349.750,413.615 " />
<polygon stroke="black" stroke-width="1" fill="rgb(204, 204, 204)" fill-opacity="0.25" points="353.297,405.910 371.864,397.519 376.147,390.798 349.516,403.516 " />
<polygon stroke="black" stroke-width="1" fill="rgb(204, 204, 204)" fill-opacity="0.25" points="371.771,420.336 353.348,411.365 349.750,413.615 375.901,427.258 " />
<polygon stroke="black" stroke-width="1" fill="rgb(204, 204, 204)" fill-opacity="0.25" points="516.142,635.308 516.142,646.747 521.560,653.303 521.560,628.752 " />
<polygon stroke="black" stroke-width="1" fill="rgb(204, 204, 204)" fill-opacity="0.25" points="538.570,996.814 538.570,996.280 533.152,993.274 533.152,999.819 " />
<polygon stroke="black" stroke-width="1" fill="rgb(204, 204, 204)" fill-opacity="0.25" points="516.142,918.788 516.142,933.470 521.560,940.026 521.560,915.783 " />
<polygon stroke="black" stroke-width="1" fill="rgb(204, 204, 204)" fill-opacity="0.25" points="520.229,801.422 520.229,786.740 514.811,783.735 514.811,807.978 " />
<polygon stroke="black" stroke-width="1" fill="rgb(204, 204, 204)" fill-opacity="0.25" points="195.758,422.490 196.137,434.041 205.035,448.295 204.621,407.548 " />
<polygon stroke="black" stroke-width="1" fill="rgb(204, 204, 204)" fill-opacity="0.25" points="183.408,428.633 183.401,428.155 175.467,423.424 175.677,433.822 " />
<polygon stroke="black" stroke-width="1" fill="rgb(204, 204, 204)" fill-opacity="0.25" points="183.401,428.155 195.758,422.490 204.621,407.548 175.467,423.424 " />
<polygon stroke="black" stroke-width="1" fill="rgb(204, 204, 204)" fill-opacity="0.25" points="196.137,434.041 183.408,428.633 175.677,433.822 205.035,448.295 " />
<polygon stroke="black" stroke-width="1" fill="rgb(204, 204, 204)" fill-opacity="0.25" points="520.229,786.740 520.229,801.422 521.560,801.422 521.560,786.740 " />
<polygon stroke="black" stroke-width="1" fill="rgb(204, 204, 204)" fill-opacity="0.25" points="516.142,646.747 516.142,635.308 514.811,635.308 514.811,646.747 " />
<polygon stroke="black" stroke-width="1" fill="rgb(204, 204, 204)" fill-opacity="0.25" points="516.142,933.470 516.142,918.788 514.811,918.788 514.811,933.470 " />
<polygon stroke="black" stroke-width="1" fill="rgb(204, 204, 204)" fill-opacity="0.25" points="39.307,397.519 39.214,420.336 43.343,427.258 43.590,390.798 " />
<polygon stroke="black" stroke-width="1" fill="rgb(204, 204, 204)" fill-opacity="0.25" points="20.791,411.365 20.740,405.910 16.959,403.516 17.193,413.616 " />
<polygon stroke="black" stroke-width="1" fill="rgb(204, 204, 204)" fill-opacity="0.25" points="20.740,405.910 39.307,397.519 43.590,390.798 16.959,403.516 " />
<polygon stroke="black" stroke-width="1" fill="rgb(204, 204, 204)" fill-opacity="0.25" points="39.214,420.336 20.791,411.365 17.193,413.616 43.343,427.258 " />
<polygon stroke="black" stroke-width="1" fill="rgb(204, 204, 204)" fill-opacity="0.25" points="516.142,960.931 516.142,972.370 521.560,978.926 521.560,954.375 " />
<polygon stroke="black" stroke-width="1" fill="rgb(204, 204, 204)" fill-opacity="0.25" points="538.570,975.920 538.570,975.387 533.152,972.381 533.152,978.926 " />
<polygon stroke="black" stroke-width="1" fill="rgb(204, 204, 204)" fill-opacity="0.25" points="516.142,748.149 516.142,762.830 521.560,769.386 521.560,745.144 " />
<polygon stroke="black" stroke-width="1" fill="rgb(204, 204, 204)" fill-opacity="0.25" points="538.570,646.747 538.570,632.066 533.152,629.061 533.152,653.303 " />
<polygon stroke="black" stroke-width="1" fill="rgb(204, 204, 204)" fill-opacity="0.25" points="534.750,397.519 534.657,420.336 538.786,427.258 539.033,390.798 " />
<polygon stroke="black" stroke-width="1" fill="rgb(204, 204, 204)" fill-opacity="0.25" points="516.234,411.365 516.183,405.910 512.402,403.516 512.636,413.615 " />
<polygon stroke="black" stroke-width="1" fill="rgb(204, 204, 204)" fill-opacity="0.25" points="516.183,405.910 534.750,397.519 539.033,390.798 512.402,403.516 " />
<polygon stroke="black" stroke-width="1" fill="rgb(204, 204, 204)" fill-opacity="0.25" points="534.657,420.336 516.234,411.365 512.636,413.615 538.786,427.258 " />
<polygon stroke="black" stroke-width="1" fill="rgb(204, 204, 204)" fill-opacity="0.25" points="516.142,674.208 516.142,685.647 521.560,692.203 521.560,667.652 " />
<polygon stroke="black" stroke-width="1" fill="rgb(204, 204, 204)" fill-opacity="0.25" points="534.483,709.557 534.483,710.091 539.901,713.096 539.901,706.552 " />
<polygon stroke="black" stroke-width="1" fill="rgb(204, 204, 204)" fill-opacity="0.25" points="516.142,709.557 516.142,724.239 521.560,730.795 521.560,706.552 " />
<polygon stroke="black" stroke-width="1" fill="rgb(204, 204, 204)" fill-opacity="0.25" points="520.229,856.287 520.229,841.605 514.811,838.600 514.811,862.843 " />
<polygon stroke="black" stroke-width="1" fill="rgb(204, 204, 204)" fill-opacity="0.25" points="697.635,436.976 697.542,414.158 701.672,407.237 701.918,443.696 " />
<polygon stroke="black" stroke-width="1" fill="rgb(204, 204, 204)" fill-opacity="0.25" points="679.119,423.129 679.068,428.585 675.288,430.979 675.521,420.879 " />
<polygon stroke="black" stroke-width="1" fill="rgb(204, 204, 204)" fill-opacity="0.25" points="697.542,414.158 679.119,423.129 675.521,420.879 701.672,407.237 " />
<polygon stroke="black" stroke-width="1" fill="rgb(204, 204, 204)" fill-opacity="0.25" points="679.068,428.585 697.635,436.976 701.918,443.696 675.288,430.979 " />
<polygon stroke="black" stroke-width="1" fill="rgb(204, 204, 204)" fill-opacity="0.25" points="516.142,999.831 516.142,1011.270 521.560,1017.826 521.560,993.274 " />
<polygon stroke="black" stroke-width="1" fill="rgb(204, 204, 204)" fill-opacity="0.25" points="534.483,936.487 534.483,937.021 539.901,940.026 539.901,933.482 " />
<polygon stroke="black" stroke-width="1" fill="rgb(204, 204, 204)" fill-opacity="0.25" points="534.483,674.208 534.483,688.890 539.901,691.895 539.901,667.652 " />
<polygon stroke="black" stroke-width="1" fill="rgb(204, 204, 204)" fill-opacity="0.25" points="520.229,898.429 520.229,883.748 514.811,877.192 514.811,901.434 " />
<polygon stroke="black" stroke-width="1" fill="rgb(204, 204, 204)" fill-opacity="0.25" points="365.430,825.912 365.809,837.464 374.706,851.717 374.293,810.970 " />
<polygon stroke="black" stroke-width="1" fill="rgb(204, 204, 204)" fill-opacity="0.25" points="353.080,832.055 353.073,831.577 345.139,826.846 345.349,837.244 " />
<polygon stroke="black" stroke-width="1" fill="rgb(204, 204, 204)" fill-opacity="0.25" points="365.809,837.464 353.080,832.055 345.349,837.244 374.706,851.717 " />
<polygon stroke="black" stroke-width="1" fill="rgb(204, 204, 204)" fill-opacity="0.25" points="353.073,831.577 365.430,825.912 374.293,810.970 345.139,826.846 " />
<polygon stroke="black" stroke-width="1" fill="rgb(204, 204, 204)" fill-opacity="0.25" points="26.086,825.912 26.465,837.463 35.363,851.717 34.950,810.970 " />
<polygon stroke="black" stroke-width="1" fill="rgb(204, 204, 204)" fill-opacity="0.25" points="13.737,832.055 13.729,831.577 5.796,826.846 6.006,837.244 " />
<polygon stroke="black" stroke-width="1" fill="rgb(204, 204, 204)" fill-opacity="0.25" points="13.729,831.577 26.086,825.912 34.950,810.970 5.796,826.846 " />
<polygon stroke="black" stroke-width="1" fill="rgb(204, 204, 204)" fill-opacity="0.25" points="26.465,837.463 13.737,832.055 6.006,837.244 35.363,851.717 " />
<polygon stroke="black" stroke-width="1" fill="rgb(204, 204, 204)" fill-opacity="0.25" points="195.758,825.913 196.137,837.464 205.035,851.717 204.622,810.970 " />
<polygon stroke="black" stroke-width="1" fill="rgb(204, 204, 204)" fill-opacity="0.25" points="183.408,832.055 183.401,831.577 175.467,826.846 175.677,837.244 " />
<polygon stroke="black" stroke-width="1" fill="rgb(204, 204, 204)" fill-opacity="0.25" points="183.401,831.577 195.758,825.913 204.622,810.970 175.467,826.846 " />
<polygon stroke="black" stroke-width="1" fill="rgb(204, 204, 204)" fill-opacity="0.25" points="196.137,837.464 183.408,832.055 175.677,837.244 205.035,851.717 " />
<polygon stroke="black" stroke-width="1" fill="rgb(204, 204, 204)" fill-opacity="0.25" points="516.142,762.830 516.142,748.149 514.811,748.149 514.811,762.830 " />
<polygon stroke="black" stroke-width="1" fill="rgb(204, 204, 204)" fill-opacity="0.25" points="516.142,972.370 516.142,960.931 514.811,960.931 514.811,972.370 " />
<polygon stroke="black" stroke-width="1" fill="rgb(204, 204, 204)" fill-opacity="0.25" points="516.142,685.647 516.142,674.208 514.811,674.208 514.811,685.647 " />
<polygon stroke="black" stroke-width="1" fill="rgb(204, 204, 204)" fill-opacity="0.25" points="516.142,724.239 516.142,709.557 514.811,709.557 514.811,724.239 " />
<polygon stroke="black" stroke-width="1" fill="rgb(204, 204, 204)" fill-opacity="0.25" points="534.483,936.487 533.152,936.487 533.152,937.021 534.483,937.021 " />
<polygon stroke="black" stroke-width="1" fill="rgb(204, 204, 204)" fill-opacity="0.25" points="520.229,883.748 520.229,898.429 521.560,898.429 521.560,883.748 " />
<polygon stroke="black" stroke-width="1" fill="rgb(204, 204, 204)" fill-opacity="0.25" points="499.792,1010.628 374.706,851.717 345.349,837.244 490.766,1017.826 " />
<polygon stroke="black" stroke-width="1" fill="rgb(204, 204, 204)" fill-opacity="0.25" points="5.796,826.846 34.950,810.970 160.098,635.947 150.122,628.752 " />
<polygon stroke="black" stroke-width="1" fill="rgb(204, 204, 204)" fill-opacity="0.25" points="151.423,1017.826 160.448,1010.628 35.363,851.717 6.006,837.244 " />
<polygon stroke="black" stroke-width="1" fill="rgb(204, 204, 204)" fill-opacity="0.25" points="175.467,826.846 204.622,810.970 329.770,635.947 319.794,628.752 " />
<polygon stroke="black" stroke-width="1" fill="rgb(204, 204, 204)" fill-opacity="0.25" points="175.677,837.244 321.094,1017.826 330.120,1010.628 205.035,851.717 " />
<polygon stroke="black" stroke-width="1" fill="rgb(204, 204, 204)" fill-opacity="0.25" points="175.467,423.424 204.621,407.548 329.770,232.525 319.794,225.330 " />
<polygon stroke="black" stroke-width="1" fill="rgb(204, 204, 204)" fill-opacity="0.25" points="321.094,614.403 330.120,607.206 205.035,448.295 175.677,433.822 " />
<polygon stroke="black" stroke-width="1" fill="rgb(204, 204, 204)" fill-opacity="0.25" points="345.139,826.846 374.293,810.970 499.442,635.947 489.466,628.752 " />
<polygon stroke="black" stroke-width="1" fill="rgb(204, 204, 204)" fill-opacity="0.25" points="822.205,603.972 811.752,611.817 675.288,430.979 701.918,443.696 " />
<polygon stroke="black" stroke-width="1" fill="rgb(204, 204, 204)" fill-opacity="0.25" points="484.931,611.485 496.433,603.624 375.901,427.258 349.750,413.615 " />
<polygon stroke="black" stroke-width="1" fill="rgb(204, 204, 204)" fill-opacity="0.25" points="496.433,230.522 485.981,222.678 349.516,403.516 376.147,390.798 " />
<polygon stroke="black" stroke-width="1" fill="rgb(204, 204, 204)" fill-opacity="0.25" points="152.374,611.485 163.876,603.624 43.343,427.258 17.193,413.616 " />
<polygon stroke="black" stroke-width="1" fill="rgb(204, 204, 204)" fill-opacity="0.25" points="163.876,230.523 153.423,222.678 16.959,403.516 43.590,390.798 " />
<polygon stroke="black" stroke-width="1" fill="rgb(204, 204, 204)" fill-opacity="0.25" points="647.817,611.485 659.319,603.624 538.786,427.258 512.636,413.615 " />
<polygon stroke="black" stroke-width="1" fill="rgb(204, 204, 204)" fill-opacity="0.25" points="659.319,230.522 648.866,222.678 512.402,403.516 539.033,390.798 " />
<polygon stroke="black" stroke-width="1" fill="rgb(204, 204, 204)" fill-opacity="0.25" points="810.702,223.009 822.205,230.870 701.672,407.237 675.521,420.879 " />
<polygon stroke="black" stroke-width="1" fill="rgb(204, 204, 204)" fill-opacity="0.25" points="810.702,223.009 675.521,420.879 670.910,419.625 806.419,220.091 " />
<polygon stroke="black" stroke-width="1" fill="rgb(204, 204, 204)" fill-opacity="0.25" points="645.431,220.091 648.866,222.678 512.402,403.516 508.342,402.141 " />
<polygon stroke="black" stroke-width="1" fill="rgb(204, 204, 204)" fill-opacity="0.25" points="647.817,611.485 512.636,413.615 508.025,414.869 643.533,614.403 " />
<polygon stroke="black" stroke-width="1" fill="rgb(204, 204, 204)" fill-opacity="0.25" points="149.988,220.091 153.423,222.678 16.959,403.516 12.899,402.141 " />
<polygon stroke="black" stroke-width="1" fill="rgb(204, 204, 204)" fill-opacity="0.25" points="12.582,414.869 17.193,413.616 152.374,611.485 148.090,614.403 " />
<polygon stroke="black" stroke-width="1" fill="rgb(204, 204, 204)" fill-opacity="0.25" points="482.546,220.091 485.981,222.678 349.516,403.516 345.457,402.141 " />
<polygon stroke="black" stroke-width="1" fill="rgb(204, 204, 204)" fill-opacity="0.25" points="484.931,611.485 349.750,413.615 345.139,414.869 480.648,614.403 " />
<polygon stroke="black" stroke-width="1" fill="rgb(204, 204, 204)" fill-opacity="0.25" points="808.317,614.403 811.752,611.817 675.288,430.979 671.228,432.354 " />
<polygon stroke="black" stroke-width="1" fill="rgb(204, 204, 204)" fill-opacity="0.25" points="503.220,1007.926 378.941,850.243 374.706,851.717 499.792,1010.628 " />
<polygon stroke="black" stroke-width="1" fill="rgb(204, 204, 204)" fill-opacity="0.25" points="34.950,810.970 39.636,812.435 163.876,638.648 160.098,635.947 " />
<polygon stroke="black" stroke-width="1" fill="rgb(204, 204, 204)" fill-opacity="0.25" points="163.876,1007.926 39.598,850.243 35.363,851.717 160.448,1010.628 " />
<polygon stroke="black" stroke-width="1" fill="rgb(204, 204, 204)" fill-opacity="0.25" points="204.622,810.970 209.308,812.435 333.548,638.648 329.770,635.947 " />
<polygon stroke="black" stroke-width="1" fill="rgb(204, 204, 204)" fill-opacity="0.25" points="205.035,851.717 330.120,1010.628 333.548,1007.926 209.270,850.243 " />
<polygon stroke="black" stroke-width="1" fill="rgb(204, 204, 204)" fill-opacity="0.25" points="204.621,407.548 209.308,409.013 333.548,235.226 329.770,232.525 " />
<polygon stroke="black" stroke-width="1" fill="rgb(204, 204, 204)" fill-opacity="0.25" points="333.548,604.504 209.270,446.821 205.035,448.295 330.120,607.206 " />
<polygon stroke="black" stroke-width="1" fill="rgb(204, 204, 204)" fill-opacity="0.25" points="374.293,810.970 378.980,812.435 503.220,638.648 499.442,635.947 " />

</svg>
