<?xml version="1.0" standalone="no"?>
<!DOCTYPE svg PUBLIC "-//W3C//DTD SVG 1.1//EN" 
  "http://www.w3.org/Graphics/SVG/1.1/DTD/svg11.dtd">
<svg width="1024" height="1024" viewBox="0 0 1024 1024"
     xmlns="http://www.w3.org/2000/svg" version="1.1">
<desc>PositionWide.blend, (Blender 3.1.2)</desc>
<polygon stroke="black" stroke-width="1" fill="rgb(204, 204, 204)" fill-opacity="0.25" points="412.116,459.632 410.984,459.632 410.984,460.085 412.116,460.086 " />
<polygon stroke="black" stroke-width="1" fill="rgb(204, 204, 204)" fill-opacity="0.25" points="454.334,459.632 453.203,459.632 453.203,460.086 454.334,460.086 " />
<polygon stroke="black" stroke-width="1" fill="rgb(204, 204, 204)" fill-opacity="0.25" points="436.698,460.086 437.830,460.086 437.830,459.632 436.698,459.632 " />
<polygon stroke="black" stroke-width="1" fill="rgb(204, 204, 204)" fill-opacity="0.25" points="412.116,493.308 412.116,483.585 410.984,483.585 410.984,493.308 " />
<polygon stroke="black" stroke-width="1" fill="rgb(204, 204, 204)" fill-opacity="0.25" points="517.663,496.326 517.663,483.847 516.531,483.847 516.531,496.326 " />
<polygon stroke="black" stroke-width="1" fill="rgb(204, 204, 204)" fill-opacity="0.25" points="521.136,444.851 521.136,457.330 522.268,457.330 522.268,444.851 " />
<polygon stroke="black" stroke-width="1" fill="rgb(204, 204, 204)" fill-opacity="0.25" points="496.553,447.869 495.422,447.869 495.422,460.348 496.553,460.348 " />
<polygon stroke="black" stroke-width="1" fill="rgb(204, 204, 204)" fill-opacity="0.25" points="803.940,335.352 808.640,336.476 809.996,345.983 805.699,348.075 " />
<polygon stroke="black" stroke-width="1" fill="rgb(204, 204, 204)" fill-opacity="0.25" points="639.597,887.063 643.149,884.842 634.895,850.679 629.547,849.903 " />
<polygon stroke="black" stroke-width="1" fill="rgb(204, 204, 204)" fill-opacity="0.25" points="30.230,697.651 35.151,696.872 43.830,662.346 39.873,659.994 " />
<polygon stroke="black" stroke-width="1" fill="rgb(204, 204, 204)" fill-opacity="0.25" points="443.119,887.063 446.671,884.842 438.417,850.679 433.069,849.903 " />
<polygon stroke="black" stroke-width="1" fill="rgb(204, 204, 204)" fill-opacity="0.25" points="231.878,697.651 236.799,696.872 245.479,662.346 241.521,659.994 " />
<polygon stroke="black" stroke-width="1" fill="rgb(204, 204, 204)" fill-opacity="0.25" points="11.164,146.954 14.755,149.138 13.131,158.427 7.686,159.346 " />
<polygon stroke="black" stroke-width="1" fill="rgb(204, 204, 204)" fill-opacity="0.25" points="204.380,146.953 207.971,149.137 206.347,158.427 200.903,159.346 " />
<polygon stroke="black" stroke-width="1" fill="rgb(204, 204, 204)" fill-opacity="0.25" points="803.940,695.672 808.640,694.548 809.996,685.040 805.699,682.948 " />
<polygon stroke="black" stroke-width="1" fill="rgb(204, 204, 204)" fill-opacity="0.25" points="228.999,148.379 223.870,167.904 225.977,174.288 234.140,143.327 " />
<polygon stroke="black" stroke-width="1" fill="rgb(204, 204, 204)" fill-opacity="0.25" points="209.925,157.091 210.943,152.095 207.971,149.137 206.347,158.427 " />
<polygon stroke="black" stroke-width="1" fill="rgb(204, 204, 204)" fill-opacity="0.25" points="210.943,152.095 228.999,148.379 234.140,143.327 207.971,149.137 " />
<polygon stroke="black" stroke-width="1" fill="rgb(204, 204, 204)" fill-opacity="0.25" points="223.870,167.904 209.925,157.091 206.347,158.427 225.977,174.288 " />
<polygon stroke="black" stroke-width="1" fill="rgb(204, 204, 204)" fill-opacity="0.25" points="433.225,483.585 433.225,493.307 437.830,498.880 437.830,478.012 " />
<polygon stroke="black" stroke-width="1" fill="rgb(204, 204, 204)" fill-opacity="0.25" points="436.698,460.086 436.698,459.632 432.093,457.077 432.093,462.640 " />
<polygon stroke="black" stroke-width="1" fill="rgb(204, 204, 204)" fill-opacity="0.25" points="542.246,496.326 542.246,483.847 537.641,478.274 537.641,498.880 " />
<polygon stroke="black" stroke-width="1" fill="rgb(204, 204, 204)" fill-opacity="0.25" points="496.553,483.847 496.553,496.326 501.159,498.880 501.159,478.274 " />
<polygon stroke="black" stroke-width="1" fill="rgb(204, 204, 204)" fill-opacity="0.25" points="28.026,672.007 25.670,682.696 30.230,697.651 39.873,659.994 " />
<polygon stroke="black" stroke-width="1" fill="rgb(204, 204, 204)" fill-opacity="0.25" points="15.588,675.071 15.707,674.648 9.615,668.741 7.686,677.865 " />
<polygon stroke="black" stroke-width="1" fill="rgb(204, 204, 204)" fill-opacity="0.25" points="15.707,674.648 28.026,672.007 39.873,659.994 9.615,668.741 " />
<polygon stroke="black" stroke-width="1" fill="rgb(204, 204, 204)" fill-opacity="0.25" points="25.670,682.696 15.588,675.071 7.686,677.865 30.230,697.651 " />
<polygon stroke="black" stroke-width="1" fill="rgb(204, 204, 204)" fill-opacity="0.25" points="496.553,496.326 496.553,483.847 495.422,483.847 495.422,496.326 " />
<polygon stroke="black" stroke-width="1" fill="rgb(204, 204, 204)" fill-opacity="0.25" points="433.225,493.307 433.225,483.585 432.093,483.585 432.093,493.307 " />
<polygon stroke="black" stroke-width="1" fill="rgb(204, 204, 204)" fill-opacity="0.25" points="542.246,483.847 542.246,496.326 543.378,496.326 543.378,483.847 " />
<polygon stroke="black" stroke-width="1" fill="rgb(204, 204, 204)" fill-opacity="0.25" points="826.677,327.409 831.471,347.488 836.650,352.871 828.969,321.020 " />
<polygon stroke="black" stroke-width="1" fill="rgb(204, 204, 204)" fill-opacity="0.25" points="813.119,343.068 812.236,337.940 808.640,336.476 809.996,345.983 " />
<polygon stroke="black" stroke-width="1" fill="rgb(204, 204, 204)" fill-opacity="0.25" points="812.236,337.940 826.677,327.409 828.969,321.020 808.640,336.476 " />
<polygon stroke="black" stroke-width="1" fill="rgb(204, 204, 204)" fill-opacity="0.25" points="831.471,347.488 813.119,343.068 809.996,345.983 836.650,352.871 " />
<polygon stroke="black" stroke-width="1" fill="rgb(204, 204, 204)" fill-opacity="0.25" points="475.444,483.585 475.444,493.308 480.049,498.880 480.049,478.012 " />
<polygon stroke="black" stroke-width="1" fill="rgb(204, 204, 204)" fill-opacity="0.25" points="454.334,459.632 454.334,460.086 458.940,462.640 458.940,457.077 " />
<polygon stroke="black" stroke-width="1" fill="rgb(204, 204, 204)" fill-opacity="0.25" points="538.772,444.851 538.772,457.330 543.378,462.902 543.378,442.297 " />
<polygon stroke="black" stroke-width="1" fill="rgb(204, 204, 204)" fill-opacity="0.25" points="521.136,457.330 521.136,444.851 516.531,442.297 516.531,462.902 " />
<polygon stroke="black" stroke-width="1" fill="rgb(204, 204, 204)" fill-opacity="0.25" points="35.782,148.379 30.654,167.904 32.760,174.288 40.923,143.328 " />
<polygon stroke="black" stroke-width="1" fill="rgb(204, 204, 204)" fill-opacity="0.25" points="16.709,157.091 17.726,152.095 14.755,149.138 13.131,158.427 " />
<polygon stroke="black" stroke-width="1" fill="rgb(204, 204, 204)" fill-opacity="0.25" points="17.726,152.095 35.782,148.379 40.923,143.328 14.755,149.138 " />
<polygon stroke="black" stroke-width="1" fill="rgb(204, 204, 204)" fill-opacity="0.25" points="30.654,167.904 16.709,157.091 13.131,158.427 32.760,174.288 " />
<polygon stroke="black" stroke-width="1" fill="rgb(204, 204, 204)" fill-opacity="0.25" points="457.808,493.307 457.808,483.585 453.203,478.012 453.203,498.880 " />
<polygon stroke="black" stroke-width="1" fill="rgb(204, 204, 204)" fill-opacity="0.25" points="412.116,459.632 412.116,460.086 416.721,462.640 416.721,457.077 " />
<polygon stroke="black" stroke-width="1" fill="rgb(204, 204, 204)" fill-opacity="0.25" points="559.882,480.829 559.882,493.307 564.487,498.880 564.487,478.274 " />
<polygon stroke="black" stroke-width="1" fill="rgb(204, 204, 204)" fill-opacity="0.25" points="517.663,483.847 517.663,496.326 522.268,498.880 522.268,478.274 " />
<polygon stroke="black" stroke-width="1" fill="rgb(204, 204, 204)" fill-opacity="0.25" points="826.677,703.614 831.471,683.536 836.650,678.152 828.969,710.003 " />
<polygon stroke="black" stroke-width="1" fill="rgb(204, 204, 204)" fill-opacity="0.25" points="813.118,687.955 812.236,693.083 808.640,694.548 809.996,685.040 " />
<polygon stroke="black" stroke-width="1" fill="rgb(204, 204, 204)" fill-opacity="0.25" points="831.471,683.536 813.118,687.955 809.996,685.040 836.650,678.152 " />
<polygon stroke="black" stroke-width="1" fill="rgb(204, 204, 204)" fill-opacity="0.25" points="812.236,693.083 826.677,703.614 828.969,710.003 808.640,694.548 " />
<polygon stroke="black" stroke-width="1" fill="rgb(204, 204, 204)" fill-opacity="0.25" points="412.116,483.585 412.116,493.308 416.721,498.880 416.721,478.012 " />
<polygon stroke="black" stroke-width="1" fill="rgb(204, 204, 204)" fill-opacity="0.25" points="478.917,460.086 478.917,459.632 474.312,457.078 474.312,462.640 " />
<polygon stroke="black" stroke-width="1" fill="rgb(204, 204, 204)" fill-opacity="0.25" points="496.553,447.869 496.553,460.348 501.159,462.902 501.159,442.297 " />
<polygon stroke="black" stroke-width="1" fill="rgb(204, 204, 204)" fill-opacity="0.25" points="563.355,460.348 563.355,447.869 558.750,442.297 558.750,462.902 " />
<polygon stroke="black" stroke-width="1" fill="rgb(204, 204, 204)" fill-opacity="0.25" points="428.591,865.235 431.574,875.587 443.119,887.063 433.069,849.903 " />
<polygon stroke="black" stroke-width="1" fill="rgb(204, 204, 204)" fill-opacity="0.25" points="418.999,873.329 418.892,872.906 410.984,870.386 413.176,879.542 " />
<polygon stroke="black" stroke-width="1" fill="rgb(204, 204, 204)" fill-opacity="0.25" points="431.574,875.587 418.999,873.329 413.176,879.542 443.119,887.063 " />
<polygon stroke="black" stroke-width="1" fill="rgb(204, 204, 204)" fill-opacity="0.25" points="418.892,872.906 428.591,865.235 433.069,849.903 410.984,870.386 " />
<polygon stroke="black" stroke-width="1" fill="rgb(204, 204, 204)" fill-opacity="0.25" points="229.674,672.007 227.319,682.696 231.878,697.651 241.521,659.994 " />
<polygon stroke="black" stroke-width="1" fill="rgb(204, 204, 204)" fill-opacity="0.25" points="217.237,675.071 217.356,674.648 211.264,668.741 209.335,677.865 " />
<polygon stroke="black" stroke-width="1" fill="rgb(204, 204, 204)" fill-opacity="0.25" points="217.356,674.648 229.674,672.007 241.521,659.994 211.264,668.741 " />
<polygon stroke="black" stroke-width="1" fill="rgb(204, 204, 204)" fill-opacity="0.25" points="227.319,682.696 217.237,675.071 209.335,677.865 231.878,697.651 " />
<polygon stroke="black" stroke-width="1" fill="rgb(204, 204, 204)" fill-opacity="0.25" points="625.069,865.235 628.052,875.587 639.597,887.063 629.547,849.903 " />
<polygon stroke="black" stroke-width="1" fill="rgb(204, 204, 204)" fill-opacity="0.25" points="615.477,873.329 615.371,872.906 607.462,870.386 609.655,879.541 " />
<polygon stroke="black" stroke-width="1" fill="rgb(204, 204, 204)" fill-opacity="0.25" points="615.371,872.906 625.069,865.235 629.547,849.903 607.462,870.386 " />
<polygon stroke="black" stroke-width="1" fill="rgb(204, 204, 204)" fill-opacity="0.25" points="628.052,875.587 615.477,873.329 609.655,879.541 639.597,887.063 " />
<polygon stroke="black" stroke-width="1" fill="rgb(204, 204, 204)" fill-opacity="0.25" points="538.772,457.330 538.772,444.851 537.641,444.851 537.641,457.330 " />
<polygon stroke="black" stroke-width="1" fill="rgb(204, 204, 204)" fill-opacity="0.25" points="475.444,493.308 475.444,483.585 474.312,483.585 474.312,493.308 " />
<polygon stroke="black" stroke-width="1" fill="rgb(204, 204, 204)" fill-opacity="0.25" points="457.808,483.585 457.808,493.307 458.940,493.307 458.940,483.585 " />
<polygon stroke="black" stroke-width="1" fill="rgb(204, 204, 204)" fill-opacity="0.25" points="559.882,493.307 559.882,480.829 558.750,480.829 558.750,493.307 " />
<polygon stroke="black" stroke-width="1" fill="rgb(204, 204, 204)" fill-opacity="0.25" points="478.917,460.086 480.049,460.086 480.049,459.632 478.917,459.632 " />
<polygon stroke="black" stroke-width="1" fill="rgb(204, 204, 204)" fill-opacity="0.25" points="563.355,447.869 563.355,460.348 564.487,460.348 564.487,447.869 " />
<polygon stroke="black" stroke-width="1" fill="rgb(204, 204, 204)" fill-opacity="0.25" points="589.483,1007.910 443.119,887.063 413.176,879.542 582.634,1016.314 " />
<polygon stroke="black" stroke-width="1" fill="rgb(204, 204, 204)" fill-opacity="0.25" points="211.264,668.741 241.521,659.994 392.687,524.570 384.975,515.889 " />
<polygon stroke="black" stroke-width="1" fill="rgb(204, 204, 204)" fill-opacity="0.25" points="382.653,1016.314 390.139,1012.487 231.878,697.651 209.335,677.865 " />
<polygon stroke="black" stroke-width="1" fill="rgb(204, 204, 204)" fill-opacity="0.25" points="607.462,870.386 629.547,849.903 782.796,517.959 774.892,514.252 " />
<polygon stroke="black" stroke-width="1" fill="rgb(204, 204, 204)" fill-opacity="0.25" points="609.655,879.541 779.112,1016.314 785.961,1007.910 639.597,887.063 " />
<polygon stroke="black" stroke-width="1" fill="rgb(204, 204, 204)" fill-opacity="0.25" points="9.615,668.741 39.873,659.994 191.038,524.570 183.327,515.889 " />
<polygon stroke="black" stroke-width="1" fill="rgb(204, 204, 204)" fill-opacity="0.25" points="181.004,1016.314 188.490,1012.487 30.230,697.651 7.686,677.865 " />
<polygon stroke="black" stroke-width="1" fill="rgb(204, 204, 204)" fill-opacity="0.25" points="410.984,870.386 433.069,849.903 586.318,517.959 578.413,514.252 " />
<polygon stroke="black" stroke-width="1" fill="rgb(204, 204, 204)" fill-opacity="0.25" points="988.232,1009.006 980.151,1013.311 808.640,694.548 828.969,710.003 " />
<polygon stroke="black" stroke-width="1" fill="rgb(204, 204, 204)" fill-opacity="0.25" points="370.128,497.311 378.747,493.182 225.977,174.288 206.347,158.427 " />
<polygon stroke="black" stroke-width="1" fill="rgb(204, 204, 204)" fill-opacity="0.25" points="378.747,20.206 370.717,10.775 207.971,149.137 234.140,143.327 " />
<polygon stroke="black" stroke-width="1" fill="rgb(204, 204, 204)" fill-opacity="0.25" points="979.010,504.171 988.232,494.285 836.650,352.871 809.996,345.983 " />
<polygon stroke="black" stroke-width="1" fill="rgb(204, 204, 204)" fill-opacity="0.25" points="988.232,22.017 980.151,17.713 808.640,336.476 828.969,321.020 " />
<polygon stroke="black" stroke-width="1" fill="rgb(204, 204, 204)" fill-opacity="0.25" points="176.911,497.311 185.530,493.182 32.760,174.288 13.131,158.427 " />
<polygon stroke="black" stroke-width="1" fill="rgb(204, 204, 204)" fill-opacity="0.25" points="185.530,20.206 177.501,10.775 14.755,149.138 40.923,143.328 " />
<polygon stroke="black" stroke-width="1" fill="rgb(204, 204, 204)" fill-opacity="0.25" points="979.010,526.852 988.232,536.738 836.650,678.152 809.996,685.040 " />
<polygon stroke="black" stroke-width="1" fill="rgb(204, 204, 204)" fill-opacity="0.25" points="979.010,526.852 809.996,685.040 805.699,682.948 975.585,523.198 " />
<polygon stroke="black" stroke-width="1" fill="rgb(204, 204, 204)" fill-opacity="0.25" points="174.873,7.686 177.501,10.775 14.755,149.138 11.164,146.954 " />
<polygon stroke="black" stroke-width="1" fill="rgb(204, 204, 204)" fill-opacity="0.25" points="176.911,497.311 13.131,158.427 7.686,159.346 170.114,500.517 " />
<polygon stroke="black" stroke-width="1" fill="rgb(204, 204, 204)" fill-opacity="0.25" points="974.568,14.709 980.151,17.713 808.640,336.476 803.940,335.352 " />
<polygon stroke="black" stroke-width="1" fill="rgb(204, 204, 204)" fill-opacity="0.25" points="805.699,348.075 809.996,345.983 979.010,504.171 975.585,507.825 " />
<polygon stroke="black" stroke-width="1" fill="rgb(204, 204, 204)" fill-opacity="0.25" points="368.089,7.686 370.717,10.775 207.971,149.137 204.380,146.953 " />
<polygon stroke="black" stroke-width="1" fill="rgb(204, 204, 204)" fill-opacity="0.25" points="370.128,497.311 206.347,158.427 200.903,159.346 363.331,500.517 " />
<polygon stroke="black" stroke-width="1" fill="rgb(204, 204, 204)" fill-opacity="0.25" points="974.568,1016.314 980.151,1013.311 808.640,694.548 803.940,695.672 " />
<polygon stroke="black" stroke-width="1" fill="rgb(204, 204, 204)" fill-opacity="0.25" points="592.090,1004.748 446.671,884.842 443.119,887.063 589.483,1007.910 " />
<polygon stroke="black" stroke-width="1" fill="rgb(204, 204, 204)" fill-opacity="0.25" points="241.521,659.994 245.479,662.346 395.611,527.834 392.687,524.570 " />
<polygon stroke="black" stroke-width="1" fill="rgb(204, 204, 204)" fill-opacity="0.25" points="395.611,1009.739 236.799,696.872 231.878,697.651 390.139,1012.487 " />
<polygon stroke="black" stroke-width="1" fill="rgb(204, 204, 204)" fill-opacity="0.25" points="629.547,849.903 634.895,850.679 788.568,520.617 782.796,517.959 " />
<polygon stroke="black" stroke-width="1" fill="rgb(204, 204, 204)" fill-opacity="0.25" points="639.597,887.063 785.961,1007.910 788.568,1004.748 643.149,884.842 " />
<polygon stroke="black" stroke-width="1" fill="rgb(204, 204, 204)" fill-opacity="0.25" points="39.873,659.994 43.830,662.346 193.963,527.834 191.038,524.570 " />
<polygon stroke="black" stroke-width="1" fill="rgb(204, 204, 204)" fill-opacity="0.25" points="193.963,1009.739 35.151,696.872 30.230,697.651 188.490,1012.487 " />
<polygon stroke="black" stroke-width="1" fill="rgb(204, 204, 204)" fill-opacity="0.25" points="433.069,849.903 438.417,850.679 592.090,520.617 586.318,517.959 " />

</svg>
